# xmcd
#
# Track frame offsets: 
#        150
#        13484
#        31673
#        53919
#        72482
#        99422
#        120565
#        132984
#        161206
#        178100
#        196886
#        212620
#        229782
#        250292
#
# Disc length: 3589 seconds
#
# Revision: 0
# Processed by: cddbd v1.5.2PL0 Copyright (c) Steve Scherf et al.
# Submitted via: ExactAudioCopy v1.3
#
DISCID=c70e030e
DTITLE=Awek - It's Rollin'
DYEAR=2009
DGENRE=Blues
TTITLE0=Let's Rock
TTITLE1=I Cry All Day Long
TTITLE2=Play With Me
TTITLE3=You Think
TTITLE4=Hush Your Mouth
TTITLE5=Magic Night
TTITLE6=Walter's Mood
TTITLE7=Telephone Blues
TTITLE8=My Sleepy Girl
TTITLE9=Be A Good Man
TTITLE10=Queen of My Night
TTITLE11=If I Had To Tell You
TTITLE12=Mind Your Step
TTITLE13=Looking For You Pretty Mama
EXTD=
EXTT0=
EXTT1=
EXTT2=
EXTT3=
EXTT4=
EXTT5=
EXTT6=
EXTT7=
EXTT8=
EXTT9=
EXTT10=
EXTT11=
EXTT12=
EXTT13=
PLAYORDER=
